<svg id="Layer_1" data-name="Layer 1" xmlns="http://www.w3.org/2000/svg" viewBox="0 0 250 250"><defs><style>.cls-1{fill:#ff6;}.cls-2{fill:#cff;}</style></defs><title>asArtboard 1</title><path d="M118,136.84V229a414.79,414.79,0,0,0,132,9.39v10c-12.28,1.06-24.64,1.59-37,1.59h-.87a425.68,425.68,0,0,1-73-6.41q-13.84-2.44-27.38-5.83a5,5,0,0,1-3.79-4.85v-100c0-.16,0-.31,0-.47a5,5,0,0,1,3.77-4.38A424.07,424.07,0,0,1,250,117.41v10A414.21,414.21,0,0,0,118,136.84Z"/><path class="cls-1" d="M97.19,12c12.65,15,25.17,29.9,37.77,44.85-6.53,7.38-14.49,13.09-16.37,23.28-10.3,33.06-22.88,57.25-38.39,88.1a9.2,9.2,0,0,1-.78,1.27c-2.08,2.76-7.18,11.35-10.59,14.12-3,2.45-4.49-.73-4.53-.88-5.36-17.81,4.64-17.14,6.28-32.35.86-6.35,2-12.67,3-19,2.41-10-9.3-8.65-13.57-2.92Q49,141,38.09,153.71c-3.89,4.93-9.23,10.32-7.19,17.15.73,5.07,7.28,15.61.22,18a1.51,1.51,0,0,1-1.16-.06c-4.35-2.28-11.18-23.3-12.35-27.63a11.28,11.28,0,0,1,1.57-9.89c5.26-7.48,10.46-15,15.71-22.5,2-2.83,2.1-4.75.19-6.07-3.17-2.65-6.28,3.45-8.26,5.92-4.9,5.75-10-4.28-6.45-8.38,2.28-4,4.9-7.81,7.3-11.72,1.76-3.44-3.16-6.65-5.48-3.51-2.31,2.92-5.8,11-9.52,5a8.08,8.08,0,0,1,.31-9.43c3.55-4.84,7.27-9.57,10.87-14.39,1.43-1.75,2.08-4.89-.46-6-3.91-1.64-5.66,3.81-7.89,6-4.44,6.2-9.15-2.07-5.56-6.6A61.58,61.58,0,0,1,22.7,64.6C45.6,44.27,73.3,30.92,97.19,12Z"/><path d="M97.19,12c12.65,15,25.17,29.9,37.77,44.85-6.53,7.38-14.49,13.09-16.37,23.28-10.3,33.06-22.88,57.25-38.39,88.1a9.2,9.2,0,0,1-.78,1.27c-2.08,2.76-7.18,11.35-10.59,14.12a4,4,0,0,1-1.66.87c-1.9.4-2.84-1.63-2.87-1.75-5.36-17.81,4.64-17.14,6.28-32.35.86-6.35,2-12.67,3-19,1.5-6.21-2.49-8-6.74-7.14a11.75,11.75,0,0,0-6.83,4.22Q49,141,38.09,153.71c-3.89,4.93-9.23,10.32-7.19,17.15.73,5.07,7.28,15.61.22,18l-.2.05a1.45,1.45,0,0,1-1-.11c-4.35-2.28-11.18-23.3-12.35-27.63a11.28,11.28,0,0,1,1.57-9.89c5.26-7.48,10.46-15,15.71-22.5,2-2.83,2.1-4.75.19-6.07a2.4,2.4,0,0,0-2.11-.61c-2.39.51-4.61,4.62-6.15,6.53a4.57,4.57,0,0,1-2.49,1.67c-3.9.82-6.88-6.65-4-10,2.28-4,4.9-7.81,7.3-11.72,1.37-2.68-1.32-5.22-3.67-4.73a3,3,0,0,0-1.81,1.22c-1.62,2-3.81,6.59-6.25,7.1-1,.23-2.15-.3-3.27-2.1a8.08,8.08,0,0,1,.31-9.43c3.55-4.84,7.27-9.57,10.87-14.39,1.43-1.75,2.08-4.89-.46-6a3.27,3.27,0,0,0-2-.24c-2.59.54-4.08,4.47-5.89,6.28a4.86,4.86,0,0,1-2.79,2.16c-3.28.69-5.6-5.2-2.77-8.76A61.58,61.58,0,0,1,22.7,64.6C45.6,44.27,73.3,30.92,97.19,12ZM98.41,0l-6.6,5.22C81.57,13.32,70.24,20.6,59.29,27.64,45,36.8,30.3,46.27,17.07,58,12,62.19,7.42,67.53,2.81,74.75a15.14,15.14,0,0,0-.62,16.62,12.54,12.54,0,0,0,3.9,4L6,95.51a16.82,16.82,0,0,0-.79,18.95l.06.09,0,.09A13.5,13.5,0,0,0,11,119.93a16.49,16.49,0,0,0,1.84,12.52,13.77,13.77,0,0,0,5.29,5.19c-2,2.91-4.05,5.81-6.09,8.71a19.85,19.85,0,0,0-2.87,17v.05l0,.06c.59,2.18,2.66,8.84,5.28,15.49,4.78,12.1,8,15.76,11.42,17.54a10.07,10.07,0,0,0,6.76.92,10.62,10.62,0,0,0,1.26-.34,13.1,13.1,0,0,0,7.7-6.69c2.89-6,.58-12.61-1.11-17.46a32.08,32.08,0,0,1-1.06-3.34L39.4,169l-.19-.61c-.46-1.55,1.47-4.09,4.25-7.51l1.32-1.63c6.7-7.78,13-15,19.08-21.94-.65,3.9-1.33,7.92-1.87,12l0,.12v.11c-.47,4.33-1.77,6.63-3.41,9.53C54.81,165.6,52,172.13,56,185.26A11.24,11.24,0,0,0,69,193a12.59,12.59,0,0,0,5.35-2.63c3.21-2.61,6.28-7,10-12.57.85-1.28,1.65-2.48,2.09-3.06a17.41,17.41,0,0,0,1.6-2.59l2.74-5.45c14.1-28,26.28-52.2,36.18-84l.16-.5.09-.51c1-5.28,4.72-9.11,9.47-14,1.59-1.63,3.24-3.31,4.86-5.14l5-5.6-4.83-5.73-1.28-1.52L103.82,6.43,98.41,0Z"/><path d="M250,156.78v8a611,611,0,0,0-110.52,3.33,4,4,0,1,1-1-7.94A617.13,617.13,0,0,1,250,156.78Z"/><path d="M250,201v8q-18.48,1.13-37,1.11a616,616,0,0,1-74.48-4.51,4,4,0,1,1,1-7.94A611.08,611.08,0,0,0,250,201Z"/><path d="M108.76,235.55,56,210.74a26.55,26.55,0,0,1-2.17-46.9c18.93-11.14,42.55-25,54.23-31.4,0,.16,0,.31,0,.47v8.71c-10.12,5.68-27.13,15.57-50.16,29.12a18.54,18.54,0,0,0,1.53,32.76L108,226.36v6.55A4.9,4.9,0,0,0,108.76,235.55Z"/><path class="cls-2" d="M135,164.64a4,4,0,0,0,4.45,3.48A611,611,0,0,1,250,164.79V201a611.08,611.08,0,0,1-110.52-3.33,4,4,0,1,0-1,7.94A616,616,0,0,0,213,210.15q18.51,0,37-1.11v29.34A414.79,414.79,0,0,1,118,229V136.84a414.21,414.21,0,0,1,132-9.39v29.33a617.13,617.13,0,0,0-111.48,3.4A4,4,0,0,0,135,164.64Z"/></svg>