<svg id="Layer_1" data-name="Layer 1" xmlns="http://www.w3.org/2000/svg" viewBox="0 0 250 250"><defs><style>.cls-1{fill:#ff6;}.cls-2{fill:#cff;}</style></defs><title>manosArtboard 1</title><path class="cls-1" d="M238.42,146.86c-22.49,12.95-46.95,22.43-70.36,33.76a4.4,4.4,0,0,0-2.07,5.82l.08.18a4.39,4.39,0,0,0,5.79,2.14c17-7.65,33.35-16.88,50.95-22.82,4.32-.94,6.72.6,8.64,4.84s1.43,6.82-2,9.49c-39.31,21-81,38-121.17,57.52C91.6,245.55,73.74,239,66,222.42c-2.08-5.63-5.15-11.33-8.14-17.1A130.45,130.45,0,0,1,51.6,192c-3.41-9-4.69-18.2,0-27.58.16-.3.32-.62.49-.93q1.44-2.79,2.87-5.59Q72.92,123,90.74,88.07c2.83-5.52,8.45-7.3,14.29-4.57A9.26,9.26,0,0,1,106,84a10,10,0,0,1,5.11,7.09,10.76,10.76,0,0,1-1,6.27q-6.68,14.48-13.59,28.85c-3.2,5.23,1.71,9.83,6.78,6.65q24.7-11.55,49.41-23.07l15.58-7.26,8.3-3.87h0l8.14-3.79L197.35,89c10.58-5.81,19.32,11.14,8.19,16-16.67,7.84-33.35,15.57-50,23.35L149.83,131a4.39,4.39,0,1,0,3.71,8q35.46-16.53,70.91-33c4.49-2.1,8.52-1.4,11.26,1.87a8.67,8.67,0,0,1-2.44,13.34C210.54,131.86,187.74,142.38,165,153a4.4,4.4,0,0,0-2.12,5.84h0a4.4,4.4,0,0,0,5.84,2.13q29.82-13.91,59.64-27.81c5.88-2.54,9.64-1,12.12,4.81C242.05,141.75,241.63,144.37,238.42,146.86Z"/><path class="cls-1" d="M175.75,72.57a26.85,26.85,0,0,0-12.82-6.39c2.92-2.22,5.6-1.89,9,.58C174.49,68.57,175.74,70.34,175.75,72.57Z"/><path class="cls-1" d="M166.05,42.56c-4.77,8.24-10,16.2-15.43,24a26.81,26.81,0,0,0-9.19,4.51,20.61,20.61,0,0,0-11.19-6.46q10.13-14.46,20.25-28.88c3.82-5.14,7.82-5.73,12.89-1.9C166.64,36.32,167.59,38.8,166.05,42.56Z"/><path class="cls-1" d="M148.73,22.86q-12,17.28-24.09,34.49A27.75,27.75,0,0,0,109.05,49l24.43-34.88c2.84-4.06,6.68-5.47,10.69-4A8.69,8.69,0,0,1,148.73,22.86Z"/><path class="cls-1" d="M116.66,22.76q-9.27,13.32-18.59,26.58A27.64,27.64,0,0,0,77,73.57a19.08,19.08,0,0,0-17.22,19c0,.12,0,.24,0,.36a20.78,20.78,0,0,0-11.24,18.44,21,21,0,0,0,1,6.34,27.81,27.81,0,0,0-4.8,41.08c-.38.72-.74,1.45-1.11,2.17-3.92,7.37-4.67,15.4-3.51,23.39C26.89,175.85,13.42,167,13,150.09c-1.35-28.21-2.82-56.4-4.24-84.61-.3-6.18,3.68-10.54,10.09-11.1,6.06-.52,10.78,3.31,11.34,9.45q1.45,15.89,2.65,31.79c-.15,6.12,6.39,7.65,9.2,2.36q29.73-42.53,59.51-85C107.8,2.65,123.84,13,116.66,22.76Z"/><path d="M168.77,55.85a27.21,27.21,0,0,0,5.88-11.36c1.55-6.7-.2-13.14-5.26-17.21a20.71,20.71,0,0,0-11.17-4.2c4.95-20.49-21.88-30.82-32.51-13.49C121.53,3.53,115,0,108.6,0c-5.38,0-10.66,2.49-14.36,8.07q-26.52,37.88-53,75.74h-.93C40.71,77,39.22,70.07,39,63.23c-.5-17.61-25.5-23.82-35.16-9.95C.88,57.25,0,61.61,0,66.3c0,.8,0,1.61.07,2.43C1.61,96.52,3,124.32,4.42,152.12c.37,10.57,5.68,19.52,13,26.88,9,6.31,18.2,13.61,27.55,19.46a93.19,93.19,0,0,0,12.85,6.86A130.45,130.45,0,0,1,51.6,192c-3.56-2.66-7.49-5.14-11.44-7.66C26.89,175.85,13.42,167,13,150.09c-1.35-28.21-2.82-56.4-4.24-84.61-.3-6.18,3.68-10.54,10.09-11.1,6.06-.52,10.78,3.31,11.34,9.45q1.45,15.89,2.65,31.79c-.15,6.12,6.39,7.65,9.2,2.36q29.73-42.53,59.51-85c6.25-10.32,22.29,0,15.11,9.79q-9.27,13.32-18.59,26.58Q89.73,61.24,81.41,73.13a4.3,4.3,0,0,0-.79,2.5A4.42,4.42,0,0,0,84.38,80l-.13-2.91c0-.31,0-.61,0-.92a20.28,20.28,0,0,1,20-20.26L109.05,49l24.43-34.88c2.84-4.06,6.68-5.47,10.69-4a8.69,8.69,0,0,1,4.56,12.79q-12,17.28-24.09,34.49l-4.33,6.17a20,20,0,0,1,3.2,5.65l.83,2.25,1.12.06,4.78-6.83q10.13-14.46,20.25-28.88c3.82-5.14,7.82-5.73,12.89-1.9,3.26,2.45,4.21,4.93,2.67,8.69-4.77,8.24-10,16.2-15.43,24-3.57,5.16-7.23,10.27-10.9,15.37l.35.62,3.4-3.53A19.62,19.62,0,0,1,157,73c1.66-2.08,3.36-4.12,5.12-6.12.29-.26.57-.5.85-.71,2.92-2.22,5.6-1.89,9,.58,2.52,1.81,3.77,3.58,3.78,5.81A8.93,8.93,0,0,1,175,76l-2.38,3.8a19.85,19.85,0,0,1,4.47,9l.84-.39,3.82-5.73c.22-.38.42-.75.61-1.12C188.39,69.69,180.44,59.22,168.77,55.85Z"/><path d="M250,140.82c0-5.17-2.66-10.45-8.63-14.75,14.54-15.26-3.53-37.63-21.4-27.94-1.09-13.5-13.36-23.57-26.5-17l-9.63,4.5-5.92,2.76-.84.39L162.34,95.6,130.6,110.4l-6.7,3.13q-7.11,3.31-14.23,6.63l-.8-.48c3.78-5.67,5.95-12.41,9.16-18.46a17.31,17.31,0,0,0-.88-17.87,22,22,0,0,0-6.24-6.43c-5.28-3.58-12.09-4.84-18.35-1.9a17.67,17.67,0,0,0-2.82,1.53A19.12,19.12,0,0,0,85.87,80a31.32,31.32,0,0,0-4.28,6.58c-11,21.7-22.08,43.32-33.13,65l-3.68,7.24c-.38.72-.74,1.45-1.11,2.17-3.92,7.37-4.67,15.4-3.51,23.39a55.46,55.46,0,0,0,1.31,6.4c1.18,2.53,2.34,5.13,3.5,7.75C55.8,223,66.64,250,92.57,250a52.41,52.41,0,0,0,19.28-4.16c40-19,80.54-36.78,120.13-56.46,12.31-7,10.83-20.62,2.15-29.65C244,156.17,250,148.62,250,140.82Zm-11.58,6c-22.49,12.95-46.95,22.43-70.36,33.76a4.4,4.4,0,0,0-2.07,5.82l.08.18a4.39,4.39,0,0,0,5.79,2.14c17-7.65,33.35-16.88,50.95-22.82,4.32-.94,6.72.6,8.64,4.84s1.43,6.82-2,9.49c-39.31,21-81,38-121.17,57.52C91.6,245.55,73.74,239,66,222.42c-2.08-5.63-5.15-11.33-8.14-17.1A130.45,130.45,0,0,1,51.6,192c-3.41-9-4.69-18.2,0-27.58.16-.3.32-.62.49-.93q1.44-2.79,2.87-5.59Q72.92,123,90.74,88.07c2.83-5.52,8.45-7.3,14.29-4.57A9.26,9.26,0,0,1,106,84a10,10,0,0,1,5.11,7.09,10.76,10.76,0,0,1-1,6.27q-6.68,14.48-13.59,28.85c-3.2,5.23,1.71,9.83,6.78,6.65q24.7-11.55,49.41-23.07l15.58-7.26,8.3-3.87h0l8.14-3.79L197.35,89c10.58-5.81,19.32,11.14,8.19,16-16.67,7.84-33.35,15.57-50,23.35L149.83,131a4.39,4.39,0,1,0,3.71,8q35.46-16.53,70.91-33c4.49-2.1,8.52-1.4,11.26,1.87a8.67,8.67,0,0,1-2.44,13.34C210.54,131.86,187.74,142.38,165,153a4.4,4.4,0,0,0-2.12,5.84h0a4.4,4.4,0,0,0,5.84,2.13q29.82-13.91,59.64-27.81c5.88-2.54,9.64-1,12.12,4.81C242.05,141.75,241.63,144.37,238.42,146.86Z"/><circle class="cls-2" cx="201.9" cy="47.61" r="16.85"/><circle class="cls-2" cx="179.2" cy="33.69" r="11.72"/><path d="M183.84,85.58l-5.92,2.76-.84.39A19.83,19.83,0,0,0,157.71,73H157a19.62,19.62,0,0,0-13.49,6l-3.4,3.53-.35-.62-2.07-3.64a13.38,13.38,0,0,0-10.91-6.77l-1.28-.08-1.12-.06-.83-2.25a20,20,0,0,0-3.2-5.65,20.34,20.34,0,0,0-15.82-7.61h-.3a20.28,20.28,0,0,0-20,20.26c0,.31,0,.61,0,.92L84.38,80l.06,1.37-4.25-.48a10.3,10.3,0,0,0-1.33-.08A11.71,11.71,0,0,0,67.32,94.56l.53,3.07-2.93,1a13.44,13.44,0,0,0-9,12.68,13.3,13.3,0,0,0,1.48,6.13L59,120.64l-3.14,1.71a20.51,20.51,0,0,0-7.43,29.16l-3.68,7.24a27.81,27.81,0,0,1,4.8-41.08,21,21,0,0,1-1-6.34A20.78,20.78,0,0,1,59.82,92.89c0-.12,0-.24,0-.36A19.08,19.08,0,0,1,77,73.57a27.61,27.61,0,0,1,52.47-9.06c.25,0,.5.08.74.14a20.61,20.61,0,0,1,11.19,6.46,26.81,26.81,0,0,1,9.19-4.51,27.42,27.42,0,0,1,7.09-.93,27.12,27.12,0,0,1,26.13,19.91Z"/><path class="cls-2" d="M177.08,88.73l-2.54,1.18-12.2,5.69-.88.41L130.6,110.4l-6.7,3.13q-7.11,3.31-14.23,6.63l-.8-.48c3.78-5.67,5.95-12.41,9.16-18.46a17.31,17.31,0,0,0-.88-17.87,22,22,0,0,0-6.24-6.43c-5.28-3.58-12.09-4.84-18.35-1.9a17.67,17.67,0,0,0-2.82,1.53A19.12,19.12,0,0,0,85.87,80a31.32,31.32,0,0,0-4.28,6.58c-11,21.7-22.08,43.32-33.13,65a20.51,20.51,0,0,1,7.43-29.16L59,120.64l-1.64-3.18a13.3,13.3,0,0,1-1.48-6.13,13.44,13.44,0,0,1,9-12.68l2.93-1-.53-3.07A11.71,11.71,0,0,1,78.86,80.81a10.3,10.3,0,0,1,1.33.08l4.25.48L84.38,80l-.13-2.91c0-.31,0-.61,0-.92a20.28,20.28,0,0,1,20-20.26h.3a20.34,20.34,0,0,1,15.82,7.61,20,20,0,0,1,3.2,5.65l.83,2.25,1.12.06,1.28.08a13.38,13.38,0,0,1,10.91,6.77L139.72,82l.35.62,3.4-3.53A19.62,19.62,0,0,1,157,73h.75a19.83,19.83,0,0,1,19.37,15.73Z"/><path d="M201.9,24.9A22.56,22.56,0,0,0,195,26,17.58,17.58,0,1,0,179.2,51.27h.3A22.7,22.7,0,1,0,201.9,24.9ZM179.31,45.41h-.11a11.72,11.72,0,1,1,10.49-16.93,11.56,11.56,0,0,1,1.23,5.21,12.1,12.1,0,0,1-.06,1.21,11.74,11.74,0,0,1-11.55,10.51Zm22.59,19a16.84,16.84,0,0,1-16.64-14.26,17.6,17.6,0,0,0,11.52-16.5,18,18,0,0,0-.13-2.09,16.64,16.64,0,0,1,5.25-.84,16.85,16.85,0,1,1,0,33.69Z"/></svg>