<svg id="Layer_1" data-name="Layer 1" xmlns="http://www.w3.org/2000/svg" viewBox="0 0 250 250"><defs><style>.cls-1{fill:#ff6;}.cls-2{fill:#cff;}.cls-3{fill:red;}</style></defs><title>asddArtboard 1</title><path class="cls-1" d="M199.77,81.32a3.82,3.82,0,0,1-3.33,4.25,588.35,588.35,0,0,1-70.95,4.29,588.64,588.64,0,0,1-71-4.29A3.81,3.81,0,0,1,55.45,78a580.87,580.87,0,0,0,140.07,0A3.83,3.83,0,0,1,199.77,81.32Z"/><path d="M196,78l-.47,0a579.25,579.25,0,0,1-70,4.24,579.54,579.54,0,0,1-70-4.24A3.71,3.71,0,0,0,55,78a3.81,3.81,0,0,0-.45,7.6,588.64,588.64,0,0,0,71,4.29,588.35,588.35,0,0,0,71-4.29A3.81,3.81,0,0,0,196,78Z"/><path class="cls-1" d="M196.44,42.26a3.81,3.81,0,0,1-.46,7.59l-.46,0a579.85,579.85,0,0,0-140.07,0,3.81,3.81,0,0,1-.92-7.57A587.91,587.91,0,0,1,196.44,42.26Z"/><path d="M125.49,38a588.51,588.51,0,0,0-71,4.29A3.81,3.81,0,0,0,55,49.85a3.39,3.39,0,0,0,.45,0,579.17,579.17,0,0,1,140.07,0l.46,0a3.81,3.81,0,0,0,.46-7.59A588.22,588.22,0,0,0,125.49,38Z"/><path class="cls-2" d="M35,20v87.79a395.26,395.26,0,0,0,181,0V20A395.26,395.26,0,0,0,35,20ZM196.44,85.57a588.35,588.35,0,0,1-70.95,4.29,588.64,588.64,0,0,1-71-4.29A3.81,3.81,0,0,1,55.45,78a580.87,580.87,0,0,0,140.07,0,3.81,3.81,0,1,1,.92,7.57Zm3.33-39.07A3.81,3.81,0,0,1,196,49.85l-.46,0a579.85,579.85,0,0,0-140.07,0,3.81,3.81,0,0,1-.92-7.57,587.91,587.91,0,0,1,141.91,0A3.81,3.81,0,0,1,199.77,46.5Z"/><path d="M125.49,89.86a588.64,588.64,0,0,1-71-4.29A3.81,3.81,0,0,1,55.45,78a580.87,580.87,0,0,0,140.07,0,3.81,3.81,0,1,1,.92,7.57A588.35,588.35,0,0,1,125.49,89.86Z"/><path d="M51.21,46.5a3.8,3.8,0,0,1,3.32-4.24,587.91,587.91,0,0,1,141.91,0,3.81,3.81,0,0,1-.46,7.59l-.46,0a579.85,579.85,0,0,0-140.07,0A3.81,3.81,0,0,1,51.21,46.5Z"/><path d="M54.53,42.26a3.81,3.81,0,0,0,.92,7.57,579.85,579.85,0,0,1,140.07,0l.46,0a3.81,3.81,0,0,0,.46-7.59A587.91,587.91,0,0,0,54.53,42.26Z"/><path d="M195.52,78A580.87,580.87,0,0,1,55.45,78a3.81,3.81,0,0,0-.92,7.57,588.64,588.64,0,0,0,71,4.29,588.35,588.35,0,0,0,71-4.29,3.81,3.81,0,1,0-.92-7.57Z"/><path d="M250,63.91a67.08,67.08,0,0,0-14.65-41.85,32,32,0,0,0-10.77-8.61,4.75,4.75,0,0,0-2.67-1.79,404.63,404.63,0,0,0-190-.68l-2.81.68a4.84,4.84,0,0,0-1.89,1,32.28,32.28,0,0,0-12.53,9.44A67.11,67.11,0,0,0,18,109.67,22.9,22.9,0,0,0,28.59,116l.48.14a399.3,399.3,0,0,0,96.42,11.66,399.3,399.3,0,0,0,96.42-11.66,4.72,4.72,0,0,0,1.85-1,22.54,22.54,0,0,0,8.22-5.55A67.17,67.17,0,0,0,250,63.91Zm-242.33,0a59.49,59.49,0,0,1,17.79-42.4V106.3A59.44,59.44,0,0,1,7.67,63.91Zm234.66,0a59.45,59.45,0,0,1-16.82,41.38V22.52A59.44,59.44,0,0,1,242.33,63.91ZM216,107.81a395.26,395.26,0,0,1-181,0V20l3.92-.91A395.47,395.47,0,0,1,216,20Z"/><polygon class="cls-3" points="94.85 49.85 82.35 62.35 69.85 49.85 57.35 62.35 69.85 74.85 57.35 87.35 69.85 99.85 82.35 87.35 94.85 99.85 107.35 87.35 94.85 74.85 107.35 62.35 94.85 49.85"/><path d="M94.85,49.85l12.5,12.5-12.5,12.5,12.5,12.5-12.5,12.5-12.5-12.5-12.5,12.5-12.5-12.5,12.5-12.5-12.5-12.5,12.5-12.5,12.5,12.5,12.5-12.5m0-6a6,6,0,0,0-4.24,1.76l-8.26,8.26-8.26-8.26a6,6,0,0,0-8.48,0l-12.5,12.5a6,6,0,0,0,0,8.49l8.25,8.25-8.25,8.26a6,6,0,0,0,0,8.49l12.5,12.5a6,6,0,0,0,8.48,0l8.26-8.26,8.26,8.26a6,6,0,0,0,8.48,0l12.5-12.5a6,6,0,0,0,0-8.49l-8.25-8.26,8.25-8.25a6,6,0,0,0,0-8.49l-12.5-12.5a6,6,0,0,0-4.24-1.76Z"/><path class="cls-1" d="M166.57,68.48c2.05,23.78.45,47.85.8,71.76a4,4,0,0,0,4,4h.18a4,4,0,0,0,4-4c.22-17.11-1.11-34.36.78-51.34.9-4,3.11-5.36,7.39-5.31S190,85,190.93,88.94c2.27,41,.19,82.29.85,123.36,0,16.91-12.4,29.25-29.26,29.28a145.26,145.26,0,0,0-17.41.15,120.06,120.06,0,0,1-13.55,0c-8.83-.66-17-3.16-23-10.74-.2-.25-.4-.5-.59-.76l-3.54-4.57q-22.09-28.52-44.28-56.94c-3.5-4.5-2.8-9.88,1.74-13.68.25-.22.51-.41.77-.6a9.18,9.18,0,0,1,7.9-1.49,9.85,9.85,0,0,1,4.85,3.23q9.48,11.19,18.77,22.54c3.11,4.7,8.85,2.4,8.17-3.07q0-25.06,0-50.15v-15.8q0-4.22,0-8.42h0c0-2.74,0-5.5,0-8.25V80.22c-.73-11.08,16.79-11.78,16.54-.6.06,16.93,0,33.85,0,50.78,0,1.91,0,3.83,0,5.75a4,4,0,0,0,2.33,3.66,3.93,3.93,0,0,0,1.71.38,4,4,0,0,0,3.82-2.72,4.11,4.11,0,0,0,.22-1.32q0-36,0-71.94c0-4.55,2.15-7.64,5.93-8.66a8,8,0,0,1,10.18,7.22c.11,23.11,0,46.2,0,69.32a4.06,4.06,0,0,0,4.05,4h0a4,4,0,0,0,4-4q0-30.25,0-60.52c.17-5.88,2.88-8.44,8.72-8.23C163.72,63.47,165.75,64.83,166.57,68.48Z"/><path d="M166,56.48c-4.31-2-9.75-1.85-15.65,1.46-7.07-18.06-32.73-11.68-31.6,7-11.68-4.34-24.85,2-24.51,15.46v85l-.71.48c-3.26-5.36-8-9.79-11.83-14.81a15.89,15.89,0,0,0-15.23-6.21,20.07,20.07,0,0,0-7.78,2.7c-5,3-8.74,8.19-8.72,14.56a16.61,16.61,0,0,0,.17,2.94,17.56,17.56,0,0,0,1.34,4.55,28.48,28.48,0,0,0,3.82,6.13q20.72,26.35,41.28,52.86l4.6,5.88,1.38,1.77c4.61,6.13,11,9.88,18.13,12a51.7,51.7,0,0,0,5.84,1.39c2.57,0,5.19.05,7.82.1,24.67.51,51.38,2,61.46-19.64a48.29,48.29,0,0,0,4-17.69c-.28-40.68.65-81.42-.37-122.07-1.07-13-13-17-23.88-13.31C176.48,67.47,172.54,59.51,166,56.48Zm.53,12c2.05,23.78.45,47.85.8,71.76a4,4,0,0,0,4,4h.18a4,4,0,0,0,4-4c.22-17.11-1.11-34.36.78-51.34.9-4,3.11-5.36,7.39-5.31S190,85,190.93,88.94c2.27,41,.19,82.29.85,123.36,0,16.91-12.4,29.25-29.26,29.28a145.26,145.26,0,0,0-17.41.15,120.06,120.06,0,0,1-13.55,0c-8.83-.66-17-3.16-23-10.74-.2-.25-.4-.5-.59-.76l-3.54-4.57q-22.09-28.52-44.28-56.94c-3.5-4.5-2.8-9.88,1.74-13.68.25-.22.51-.41.77-.6a9.18,9.18,0,0,1,7.9-1.49,9.85,9.85,0,0,1,4.85,3.23q9.48,11.19,18.77,22.54c3.11,4.7,8.85,2.4,8.17-3.07q0-25.06,0-50.15v-15.8q0-4.22,0-8.42h0c0-2.74,0-5.5,0-8.25V80.22c-.73-11.08,16.79-11.78,16.54-.6.06,16.93,0,33.85,0,50.78,0,1.91,0,3.83,0,5.75a4,4,0,0,0,2.33,3.66,3.93,3.93,0,0,0,1.71.38,4,4,0,0,0,3.82-2.72,4.11,4.11,0,0,0,.22-1.32q0-36,0-71.94c0-4.55,2.15-7.64,5.93-8.66a8,8,0,0,1,10.18,7.22c.11,23.11,0,46.2,0,69.32a4.06,4.06,0,0,0,4.05,4h0a4,4,0,0,0,4-4q0-30.25,0-60.52c.17-5.88,2.88-8.44,8.72-8.23C163.72,63.47,165.75,64.83,166.57,68.48Z"/></svg>