<svg id="Layer_1" data-name="Layer 1" xmlns="http://www.w3.org/2000/svg" viewBox="0 0 250 250"><defs><style>.cls-1{fill:#ff6;}.cls-2{fill:#cff;}.cls-3{fill:none;stroke:#000;stroke-linecap:round;stroke-miterlimit:10;stroke-width:8px;}</style></defs><title>asdArtboard 1</title><circle class="cls-1" cx="125" cy="112.5" r="108.5"/><path d="M125,8A104.5,104.5,0,1,1,20.5,112.5,104.62,104.62,0,0,1,125,8m0-8A112.5,112.5,0,1,0,237.5,112.5,112.5,112.5,0,0,0,125,0Z"/><path class="cls-1" d="M183.11,166.61a3,3,0,0,1-2.6,3.32A459.86,459.86,0,0,1,125,173.29a459.86,459.86,0,0,1-55.51-3.36,3,3,0,0,1,.72-5.92,454.44,454.44,0,0,0,109.58,0A3,3,0,0,1,183.11,166.61Z"/><path d="M180.15,164a2.17,2.17,0,0,0-.36,0A454.19,454.19,0,0,1,125,167.32,454.19,454.19,0,0,1,70.21,164a2.23,2.23,0,0,0-.37,0,3,3,0,0,0-.35,5.94A459.86,459.86,0,0,0,125,173.29a459.86,459.86,0,0,0,55.51-3.36,3,3,0,0,0-.36-5.94Z"/><path class="cls-1" d="M180.51,136.05a3,3,0,0,1-.36,5.94l-.36,0a453.42,453.42,0,0,0-109.58,0,3,3,0,1,1-.72-5.92A460.22,460.22,0,0,1,180.51,136.05Z"/><path d="M125,132.69a459.74,459.74,0,0,0-55.51,3.36,3,3,0,0,0,.37,5.94l.35,0a453.76,453.76,0,0,1,109.58,0l.36,0a3,3,0,0,0,.36-5.94A459.74,459.74,0,0,0,125,132.69Z"/><path d="M200.43,112.11a316.49,316.49,0,0,0-150.86,0,3.75,3.75,0,0,0-2.82,3.61v74.53a3.73,3.73,0,0,0,2.82,3.62A312.28,312.28,0,0,0,125,203a312.28,312.28,0,0,0,75.43-9.12,3.73,3.73,0,0,0,2.82-3.62V115.72A3.71,3.71,0,0,0,200.43,112.11Zm-4.63,75.22a309.29,309.29,0,0,1-141.6,0V118.65l3.07-.71a309.41,309.41,0,0,1,138.53.71Z"/><path d="M183.11,139.37a3,3,0,0,1-3,2.62l-.36,0a453.42,453.42,0,0,0-109.58,0,3,3,0,1,1-.72-5.92,460.22,460.22,0,0,1,111,0A3,3,0,0,1,183.11,139.37Z"/><path d="M180.51,169.93A459.86,459.86,0,0,1,125,173.29a459.86,459.86,0,0,1-55.51-3.36,3,3,0,0,1,.72-5.92,454.44,454.44,0,0,0,109.58,0,3,3,0,0,1,.72,5.92Z"/><path class="cls-2" d="M54.2,118.65v68.68a309.29,309.29,0,0,0,141.6,0V118.65A309.29,309.29,0,0,0,54.2,118.65Zm126.31,51.28A459.86,459.86,0,0,1,125,173.29a459.86,459.86,0,0,1-55.51-3.36,3,3,0,0,1,.72-5.92,454.44,454.44,0,0,0,109.58,0,3,3,0,0,1,.72,5.92Zm2.6-30.56a3,3,0,0,1-3,2.62l-.36,0a453.42,453.42,0,0,0-109.58,0,3,3,0,1,1-.72-5.92,460.22,460.22,0,0,1,111,0A3,3,0,0,1,183.11,139.37Z"/><path d="M125,173.29a459.86,459.86,0,0,1-55.51-3.36,3,3,0,0,1,.72-5.92,454.44,454.44,0,0,0,109.58,0,3,3,0,0,1,.72,5.92A459.86,459.86,0,0,1,125,173.29Z"/><path d="M66.89,139.37a3,3,0,0,1,2.6-3.32,460.22,460.22,0,0,1,111,0,3,3,0,0,1-.36,5.94l-.36,0a453.42,453.42,0,0,0-109.58,0A3,3,0,0,1,66.89,139.37Z"/><path class="cls-1" d="M84.55,240.78,57,204.94c5.28-5.46,11.6-9.6,13.39-17.39C79.4,162.42,89.91,144.2,102.9,121a6.23,6.23,0,0,1,.65-1c1.69-2,5.91-8.5,8.63-10.52,2.41-1.79,3.43.72,3.46.83,3.54,13.9-4.15,13-5.93,24.72-.87,4.87-2,9.69-3,14.54-2.2,7.6,6.87,7,10.35,2.72q9-9.3,17.79-18.71c3.16-3.67,7.46-7.64,6.11-13-.39-3.94-5.08-12.28.44-13.92a1.15,1.15,0,0,1,.89.08c3.28,1.9,7.83,18.33,8.59,21.71a8.69,8.69,0,0,1-1.54,7.57c-4.31,5.59-8.56,11.22-12.87,16.81-1.62,2.12-1.77,3.59-.34,4.68,2.34,2.14,4.95-2.46,6.56-4.29,4-4.27,7.54,3.63,4.69,6.67-1.89,3-4,5.86-6,8.79-1.47,2.59,2.21,5.23,4.1,2.89,1.88-2.17,4.85-8.26,7.51-3.53a6.24,6.24,0,0,1-.56,7.25c-2.9,3.62-5.92,7.14-8.86,10.72-1.16,1.31-1.76,3.71.15,4.64,3,1.39,4.5-2.75,6.29-4.39,3.63-4.63,7,1.91,4.06,5.28a47.48,47.48,0,0,1-10.34,11.2C125.4,217.66,103.6,227,84.55,240.78Z"/><path d="M84.55,240.78,57,204.94c5.28-5.46,11.6-9.6,13.39-17.39C79.4,162.42,89.91,144.2,102.9,121a6.23,6.23,0,0,1,.65-1c1.69-2,5.91-8.5,8.63-10.52a3.06,3.06,0,0,1,1.31-.62c1.48-.24,2.13,1.36,2.15,1.45,3.54,13.9-4.15,13-5.93,24.72-.87,4.87-2,9.69-3,14.54-1.37,4.74,1.64,6.28,5,5.74a9.13,9.13,0,0,0,5.4-3q9-9.3,17.79-18.71c3.16-3.67,7.46-7.64,6.11-13-.39-3.94-5.08-12.28.44-13.92l.16,0a1.09,1.09,0,0,1,.73.12c3.28,1.9,7.83,18.33,8.59,21.71a8.69,8.69,0,0,1-1.54,7.57c-4.31,5.59-8.56,11.22-12.87,16.81-1.62,2.12-1.77,3.59-.34,4.68a1.82,1.82,0,0,0,1.6.53c1.86-.31,3.71-3.4,5-4.82a3.54,3.54,0,0,1,2-1.21c3-.5,5.08,5.36,2.72,7.88-1.89,3-4,5.86-6,8.79a2.59,2.59,0,0,0,2.66,3.77,2.34,2.34,0,0,0,1.44-.88c1.32-1.52,3.16-5,5.06-5.27.82-.13,1.65.31,2.45,1.74a6.24,6.24,0,0,1-.56,7.25c-2.9,3.62-5.92,7.14-8.86,10.72-1.16,1.31-1.76,3.71.15,4.64a2.55,2.55,0,0,0,1.53.25c2-.33,3.3-3.31,4.76-4.64a3.75,3.75,0,0,1,2.22-1.57c2.55-.43,4.14,4.19,1.84,6.85a47.48,47.48,0,0,1-10.34,11.2c-18.33,14.9-40.13,24.26-59.18,38M83.21,250l5.26-3.8c8.17-5.9,17.14-11.13,25.82-16.19,11.29-6.58,23-13.38,33.56-22a53.49,53.49,0,0,0,11.55-12.43,11.66,11.66,0,0,0,1-12.79,9.81,9.81,0,0,0-2.86-3.22l.08-.1a13,13,0,0,0,1.25-14.58l0-.07,0-.07a10.39,10.39,0,0,0-4.25-4.27,12.65,12.65,0,0,0-1-9.71,10.81,10.81,0,0,0-3.9-4.18l5-6.5a15.28,15.28,0,0,0,2.79-13V127c-.38-1.7-1.76-6.9-3.55-12.11-3.28-9.49-5.65-12.42-8.21-13.91a7.83,7.83,0,0,0-5.18-.93,8.17,8.17,0,0,0-1,.22,10.09,10.09,0,0,0-6.16,4.9c-2.43,4.51-.87,9.7.27,13.49a25.48,25.48,0,0,1,.7,2.61l.05.5.12.47c.31,1.21-1.27,3.1-3.53,5.64l-1.06,1.22c-5.43,5.77-10.51,11.12-15.45,16.27.64-3,1.29-6.06,1.85-9.16v-.09l0-.09a16.55,16.55,0,0,1,3-7.22c3.1-5,5.45-9.9,2.85-20.15a8.68,8.68,0,0,0-9.72-6.4,9.56,9.56,0,0,0-4.22,1.85c-2.56,1.9-5.08,5.22-8.1,9.35-.7,1-1.35,1.86-1.71,2.29a14,14,0,0,0-1.32,1.94l-2.3,4.11c-11.81,21.11-22,39.34-30.7,63.5l-.14.37-.09.39c-.93,4-3.95,6.87-7.77,10.45-1.28,1.2-2.61,2.44-3.92,3.79l-4,4.16L51.65,209l.94,1.21,26.66,34.63,4,5.14Z"/><path d="M46.86,114.84a3.66,3.66,0,0,0-.11.88v7.17c-8.78-.77-27.39-8.13-32.45-24.33l7.63-2.39C25.92,108.93,41.52,114,46.86,114.84Z"/><path d="M199.61,114.69c.07.28.86,2,.86,2.35l-.75,5.7c8.78-.77,31.3-8,36.36-24.18l-7.63-2.39C224.46,108.93,205,113.83,199.61,114.69Z"/><path class="cls-3" d="M67.27,96.17s12.37-17.33,35-10.49"/><path class="cls-3" d="M182.73,96.17s-12.37-17.33-35-10.49"/></svg>